<?xml version="1.0"?>
<svg width="1120.59226" height="777.91584" xmlns="http://www.w3.org/2000/svg" xmlns:svg="http://www.w3.org/2000/svg" data-name="Layer 1">
 <title>not found</title>
 <g class="layer">
  <title>Layer 1</title>
  <circle cx="212.59" cy="103" fill="#f0bd2f" id="svg_1" r="64"/>
  <path d="m523.98,343.12c0,151.02 -89.77,203.74 -200.52,203.74s-200.51,-52.72 -200.51,-203.74s200.51,-343.12 200.51,-343.12s200.52,192.11 200.52,343.12z" fill="#cef0ff" id="svg_2"/>
  <polygon fill="#3f3d56" id="svg_3" points="316.156 523.761 318.21 397.378 403.674 241.024 318.532 377.552 319.455 320.725 378.357 207.605 319.699 305.687 319.699 305.687 321.359 203.481 384.433 113.423 321.621 187.409 322.658 0 316.138 248.096 316.674 237.861 252.547 139.704 315.646 257.508 309.671 371.654 309.493 368.625 235.565 265.329 309.269 379.328 308.522 393.603 308.388 393.818 308.449 394.99 293.29 684.589 313.544 684.589 315.974 535.005 389.496 421.285 316.156 523.761"/>
  <path d="m1120.6,404.97c0,123.61 -73.49,166.77 -164.14,166.77s-164.13,-43.16 -164.13,-166.77s164.13,-280.86 164.13,-280.86s164.14,157.25 164.14,280.86z" fill="#cef0ff" id="svg_4"/>
  <polygon fill="#3f3d56" id="svg_5" points="950.482 552.833 952.162 449.383 1022.119 321.4 952.426 433.154 953.182 386.639 1001.396 294.044 953.382 374.329 953.382 374.329 954.741 290.669 1006.369 216.952 954.954 277.514 955.804 124.11 950.467 327.188 950.906 318.811 898.414 238.464 950.064 334.893 945.173 428.327 945.027 425.847 884.514 341.294 944.844 434.608 944.232 446.293 944.123 446.469 944.173 447.428 931.764 684.478 948.343 684.478 950.332 562.037 1010.514 468.952 950.482 552.833"/>
  <ellipse cx="554.59" cy="680.48" fill="#3f3d56" id="svg_6" rx="554.59" ry="28.03"/>
  <ellipse cx="892.44" cy="726.8" fill="#3f3d56" id="svg_7" rx="94.99" ry="4.8"/>
  <ellipse cx="548.72" cy="773.11" fill="#3f3d56" id="svg_8" rx="94.99" ry="4.8"/>
  <ellipse cx="287.94" cy="734.28" fill="#3f3d56" id="svg_9" rx="217.01" ry="10.97"/>
  <circle cx="97.08" cy="566.27" fill="#2f2e41" id="svg_10" r="79" transform="matrix(1 0 0 1 0 0)"/>
  <rect fill="#2f2e41" height="43" id="svg_11" transform="translate(-31.32451 -62.31008) rotate(0.67509)" width="24" x="99.81" y="689.02"/>
  <rect fill="#2f2e41" height="43" id="svg_12" transform="translate(-31.31452 -62.87555) rotate(0.67509)" width="24" x="147.8" y="689.59"/>
  <ellipse cx="119.55" cy="732.62" fill="#2f2e41" id="svg_13" rx="7.5" ry="20" transform="translate(-654.1319 782.47948) rotate(-89.32491)"/>
  <ellipse cx="167.55" cy="732.18" fill="#2f2e41" id="svg_14" rx="7.5" ry="20" transform="translate(-606.25475 830.05533) rotate(-89.32491)"/>
  <circle cx="99.32" cy="546.29" fill="#fff" id="svg_15" r="27"/>
  <circle cx="99.32" cy="546.29" fill="#3f3d56" id="svg_16" r="9"/>
  <path d="m21.33,491.91c-6.05,-28.64 14.68,-57.27 46.3,-63.94s62.13,11.15 68.18,39.79s-14.98,38.93 -46.59,45.6s-61.85,7.19 -67.89,-21.45z" fill="#f0bd2f" id="svg_17"/>
  <path d="m217.6,610.34c0,55.08 -32.74,74.31 -73.13,74.31q-1.41,0 -2.81,-0.03c-1.87,-0.04 -3.72,-0.13 -5.55,-0.25c-36.45,-2.58 -64.77,-22.8 -64.77,-74.03c0,-53 67.73,-119.89 72.82,-124.84l0.01,-0.01c0.2,-0.19 0.3,-0.29 0.3,-0.29s73.13,70.07 73.13,125.14z" fill="#0042b3" id="svg_18" transform="matrix(1 0 0 1 0 0)"/>
  <path d="m141.8,676.22l26.75,-37.37l-26.82,41.48l-0.07,4.29c-1.87,-0.04 -3.72,-0.13 -5.55,-0.25l2.88,-55.11l-0.02,-0.43l0.05,-0.08l0.27,-5.2l-26.88,-41.58l26.96,37.68l0.07,1.1l2.17,-41.63l-23.01,-42.97l23.3,35.66l2.26,-86.31l0.01,-0.3l0,0.29l-0.38,68.06l22.91,-26.98l-23,32.85l-0.61,37.27l21.4,-35.77l-21.49,41.26l-0.33,20.72l31.05,-49.79l-31.17,57.02l-0.75,46.09z" fill="#000000" id="svg_19" transform="matrix(1 0 0 1 0 0)"/>
  <circle cx="712.49" cy="565.42" fill="#2f2e41" id="svg_20" r="79"/>
  <rect fill="#2f2e41" height="43" id="svg_21" transform="translate(-215.99457 191.86399) rotate(-17.08345)" width="24" x="741.78" y="691.82"/>
  <rect fill="#2f2e41" height="43" id="svg_22" transform="matrix(0.95588, -0.29376, 0.29376, 0.95588, -209.82788, 204.72037)" width="24" x="787.66" y="677.72"/>
  <ellipse cx="767.89" cy="732" fill="#2f2e41" id="svg_23" rx="20" ry="7.5" transform="translate(-220.8593 196.83312) rotate(-17.08345)"/>
  <ellipse cx="813.48" cy="716.95" fill="#2f2e41" id="svg_24" rx="20" ry="7.5" transform="translate(-214.42477 209.56103) rotate(-17.08345)"/>
  <circle cx="708.52" cy="545.71" fill="#fff" id="svg_25" r="27"/>
  <circle cx="708.52" cy="545.71" fill="#3f3d56" id="svg_26" r="9"/>
  <path d="m617.66,517.7c-14.49,-25.43 -3.48,-59.01 24.59,-75.01s62.58,-8.34 77.06,17.1s-2.39,41.64 -30.46,57.63s-56.71,25.72 -71.19,0.28z" fill="#f0bd2f" id="svg_27" transform="matrix(1 0 0 1 0 0)"/>
  <path d="m571.6,600.26c0,50.56 -30.06,68.21 -67.13,68.21q-1.29,0 -2.58,-0.03c-1.71,-0.04 -3.42,-0.12 -5.1,-0.23c-33.46,-2.37 -59.45,-20.93 -59.45,-67.95c0,-48.66 62.18,-110.06 66.85,-114.6l0.01,-0.01c0.18,-0.18 0.27,-0.26 0.27,-0.26s67.13,64.31 67.13,114.87z" fill="#0042b3" id="svg_28" transform="matrix(1 0 0 1 0 0)"/>
  <path d="m502.02,660.73l24.55,-34.3l-24.61,38.07l-0.07,3.94c-1.71,-0.04 -3.42,-0.12 -5.1,-0.23l2.65,-50.58l-0.02,-0.4l0.04,-0.07l0.25,-4.78l-24.67,-38.17l24.75,34.59l0.06,1.01l2,-38.21l-21.13,-39.44l21.39,32.73l2.08,-79.23l0.01,-0.27l0,0.26l-0.35,62.48l21.03,-24.77l-21.12,30.15l-0.55,34.22l19.63,-32.84l-19.72,37.87l-0.31,19.02l28.51,-45.7l-28.61,52.34l-0.69,42.31z" fill="#000000" id="svg_29"/>
  <path d="m835.6,621.34c0,55.08 -32.74,74.31 -73.13,74.31q-1.41,0 -2.81,-0.03c-1.87,-0.04 -3.72,-0.13 -5.55,-0.25c-36.45,-2.58 -64.77,-22.8 -64.77,-74.03c0,-53 67.73,-119.89 72.82,-124.84l0.01,-0.01c0.2,-0.19 0.3,-0.29 0.3,-0.29s73.13,70.07 73.13,125.14z" fill="#0042b3" id="svg_30" transform="matrix(1 0 0 1 0 0)"/>
  <path d="m759.8,687.22l26.75,-37.37l-26.82,41.48l-0.07,4.29c-1.87,-0.04 -3.72,-0.13 -5.55,-0.25l2.88,-55.11l-0.02,-0.43l0.05,-0.08l0.27,-5.2l-26.88,-41.58l26.96,37.68l0.07,1.1l2.17,-41.63l-23.01,-42.97l23.3,35.66l2.26,-86.31l0.01,-0.3l0,0.29l-0.38,68.06l22.91,-26.98l-23,32.85l-0.61,37.27l21.4,-35.77l-21.49,41.26l-0.33,20.72l31.05,-49.79l-31.17,57.02l-0.75,46.09z" fill="#000000" id="svg_31" transform="matrix(1 0 0 1 0 0)"/>
  <ellipse cx="721.52" cy="656.82" fill="#2f2e41" id="svg_32" rx="12.4" ry="39.5" transform="translate(-220.83517 966.22323) rotate(-64.62574)"/>
  <ellipse cx="112.52" cy="651.82" fill="#2f2e41" id="svg_33" rx="12.4" ry="39.5" transform="translate(-574.07936 452.71367) rotate(-68.15829)"/>
 </g>
</svg>