<svg id="Capa_1" data-name="Capa 1" xmlns="http://www.w3.org/2000/svg" viewBox="0 0 300 90"><defs><style>.cls-1{fill:#edd12f;}.cls-2{fill:#0f447f;}.cls-3{fill:#0c457f;}.cls-4{fill:#3d426e;}.cls-5{fill:#272d5d;}.cls-6{fill:#323765;}.cls-7{fill:#184282;}.cls-8{fill:#fff;}</style></defs><title>LOGO FOODER</title><rect class="cls-1" x="76.96" y="16.64" width="41.46" height="40.87"/><path class="cls-2" d="M113.55,52.52H82v-31h31.58Zm-31.24-.31h30.9V21.8H82.31Z"/><path class="cls-2" d="M118.85,57.69H76.66V16.32h42.19Zm-41.5-.62h40.82V17H77.35Z"/><rect class="cls-3" x="79.39" y="18.96" width="1.57" height="1.54"/><polygon class="cls-4" points="79.39 18.96 80.96 18.96 80.17 19.74 79.39 18.96 79.39 18.96"/><polygon class="cls-5" points="79.39 20.5 79.39 18.96 80.18 19.74 79.39 20.5 79.39 20.5"/><polygon class="cls-6" points="80.96 20.5 79.39 20.5 80.18 19.73 80.96 20.5 80.96 20.5"/><rect class="cls-3" x="114.56" y="18.96" width="1.57" height="1.54"/><polygon class="cls-4" points="114.56 18.96 116.14 18.96 115.34 19.73 114.56 18.96 114.56 18.96"/><polygon class="cls-5" points="114.56 20.5 114.56 18.96 115.36 19.73 114.56 20.5 114.56 20.5"/><polygon class="cls-6" points="116.14 20.5 114.56 20.5 115.36 19.72 116.14 20.5 116.14 20.5"/><path class="cls-2" d="M89.81,20.75h-.56L89,20.19H88l-.21.56h-.55l1-2.47h.55Zm-1-1-.36-.91-.34.91Z"/><path class="cls-2" d="M90.08,18.28h.52v1.34a3,3,0,0,0,0,.41.4.4,0,0,0,.16.25.55.55,0,0,0,.34.09.52.52,0,0,0,.33-.09.34.34,0,0,0,.13-.21,2.12,2.12,0,0,0,0-.42V18.28h.51v1.3a3.08,3.08,0,0,1,0,.63.69.69,0,0,1-.15.31.87.87,0,0,1-.31.2,1.3,1.3,0,0,1-.49.07,1.33,1.33,0,0,1-.55-.08.68.68,0,0,1-.3-.21.61.61,0,0,1-.15-.27,3.24,3.24,0,0,1,0-.63Z"/><path class="cls-2" d="M93.25,20.75V18.7h-.76v-.42h2v.42h-.76v2.05Z"/><path class="cls-2" d="M94.75,19.53a1.48,1.48,0,0,1,.12-.63,1.16,1.16,0,0,1,.24-.34.87.87,0,0,1,.33-.22,1.35,1.35,0,0,1,.55-.1,1.22,1.22,0,0,1,.91.34,1.29,1.29,0,0,1,.34.94,1.3,1.3,0,0,1-.34.94,1.25,1.25,0,0,1-2.15-.93Zm.54,0a.91.91,0,0,0,.19.64.67.67,0,0,0,.52.22.63.63,0,0,0,.5-.22.91.91,0,0,0,.2-.64.88.88,0,0,0-.19-.63.66.66,0,0,0-.51-.21.67.67,0,0,0-.52.21A.9.9,0,0,0,95.29,19.51Zm.39-1.37.24-.5h.55l-.48.5Z"/><path class="cls-2" d="M97.65,20.75V18.28h.5l1,1.65V18.28h.48v2.47h-.52l-1-1.61v1.61Z"/><path class="cls-2" d="M100.12,19.53a1.48,1.48,0,0,1,.12-.63,1.16,1.16,0,0,1,.24-.34.8.8,0,0,1,.33-.22,1.35,1.35,0,0,1,.55-.1,1.18,1.18,0,0,1,.9.34,1.25,1.25,0,0,1,.34.94,1.3,1.3,0,0,1-.33.94,1.25,1.25,0,0,1-2.15-.93Zm.53,0a.91.91,0,0,0,.2.64.67.67,0,0,0,.51.22.64.64,0,0,0,.51-.22.91.91,0,0,0,.2-.64.88.88,0,0,0-.19-.63.67.67,0,0,0-.52-.21.66.66,0,0,0-.51.21A.9.9,0,0,0,100.65,19.51Z"/><path class="cls-2" d="M103,20.75V18.28h.78l.46,1.69.46-1.69h.78v2.47H105V18.81l-.51,1.94H104l-.51-1.94v1.94Z"/><path class="cls-2" d="M108.3,20.75h-.56l-.23-.56h-1l-.21.56h-.55l1-2.47h.54Zm-1-1-.35-.91-.35.91Z"/><path class="cls-2" d="M89.81,56.34h-.56L89,55.78H88l-.21.56h-.55l1-2.47h.54Zm-1-1-.36-.92-.34.92Z"/><path class="cls-2" d="M90.08,53.87h.52v1.34a3.13,3.13,0,0,0,0,.41.36.36,0,0,0,.16.24.55.55,0,0,0,.34.09.59.59,0,0,0,.33-.08.34.34,0,0,0,.13-.22,2,2,0,0,0,0-.42V53.87h.51v1.29a3.08,3.08,0,0,1,0,.63.6.6,0,0,1-.15.31.76.76,0,0,1-.31.2,1.28,1.28,0,0,1-.49.08,1.52,1.52,0,0,1-.55-.08.88.88,0,0,1-.3-.21.59.59,0,0,1-.15-.28,3.13,3.13,0,0,1,0-.62Z"/><path class="cls-2" d="M93.24,56.34V54.28h-.75v-.41h2v.41h-.76v2.06Z"/><path class="cls-2" d="M94.75,55.12a1.52,1.52,0,0,1,.12-.64,1.27,1.27,0,0,1,.24-.33.9.9,0,0,1,.33-.23,1.54,1.54,0,0,1,.55-.1,1.26,1.26,0,0,1,.91.34,1.3,1.3,0,0,1,.34.94,1.29,1.29,0,0,1-.34.94,1.25,1.25,0,0,1-2.15-.92Zm.54,0a.94.94,0,0,0,.19.64A.7.7,0,0,0,96,56a.66.66,0,0,0,.5-.21,1,1,0,0,0,.2-.65.9.9,0,0,0-.19-.63.66.66,0,0,0-.51-.21.67.67,0,0,0-.52.21A.92.92,0,0,0,95.29,55.1Zm.39-1.38.24-.5h.55l-.48.5Z"/><path class="cls-2" d="M97.65,56.34V53.87h.5l1,1.65V53.87h.48v2.47h-.52l-1-1.61v1.61Z"/><path class="cls-2" d="M100.12,55.12a1.52,1.52,0,0,1,.12-.64,1.27,1.27,0,0,1,.24-.33.82.82,0,0,1,.33-.23,1.54,1.54,0,0,1,.55-.1,1.22,1.22,0,0,1,.9.34,1.26,1.26,0,0,1,.34.94,1.28,1.28,0,0,1-.33.94,1.25,1.25,0,0,1-2.15-.92Zm.53,0a.94.94,0,0,0,.2.64.69.69,0,0,0,.51.21.66.66,0,0,0,.51-.21,1,1,0,0,0,.2-.65.9.9,0,0,0-.19-.63.67.67,0,0,0-.52-.21.66.66,0,0,0-.51.21A.93.93,0,0,0,100.65,55.1Z"/><path class="cls-2" d="M103,56.34V53.87h.78l.46,1.68.46-1.68h.78v2.47H105v-2l-.51,2H104l-.51-2v2Z"/><path class="cls-2" d="M108.3,56.34h-.56l-.23-.56h-1l-.21.56h-.55l1-2.47h.54Zm-1-1-.35-.92-.35.92Z"/><path class="cls-2" d="M116.85,27.35v.93a1.9,1.9,0,0,1,0,.48.89.89,0,0,1-.23.38,1.09,1.09,0,0,1-.41.23,1.92,1.92,0,0,1-1.13,0,1,1,0,0,1-.44-.27,1.07,1.07,0,0,1-.2-.35,1.47,1.47,0,0,1,0-.45v-1Zm-.43.51h-1.66v.38a1.9,1.9,0,0,0,0,.3.47.47,0,0,0,.11.21.54.54,0,0,0,.24.13,1.46,1.46,0,0,0,.46.05,1.32,1.32,0,0,0,.45-.05.51.51,0,0,0,.24-.14.46.46,0,0,0,.12-.24,2.08,2.08,0,0,0,0-.42Z"/><path class="cls-2" d="M114.34,29.89h2.51v1.86h-.43V30.4h-.55v1.26h-.43V30.4h-.68v1.4h-.42Z"/><path class="cls-2" d="M114.34,33.22h2.51v.49l-1.68,1h1.68v.47h-2.51V34.7l1.64-1h-1.64Z"/><path class="cls-2" d="M114.34,38v-.55l.57-.22v-1l-.57-.21v-.54l2.51,1V37Zm1-.94.93-.34-.93-.34Z"/><path class="cls-2" d="M114.34,38.29h2.51v1.07a1.7,1.7,0,0,1-.07.59.52.52,0,0,1-.24.29.74.74,0,0,1-.39.11.68.68,0,0,1-.47-.17.78.78,0,0,1-.23-.5,2.27,2.27,0,0,1-.21.28c-.08.07-.22.16-.41.29l-.49.3V40l.54-.37a2.72,2.72,0,0,0,.37-.27.48.48,0,0,0,.11-.15.84.84,0,0,0,0-.26v-.1h-1Zm1.45.51v.38a1.94,1.94,0,0,0,0,.45.24.24,0,0,0,.1.14.34.34,0,0,0,.4,0,.39.39,0,0,0,.1-.19V38.8Z"/><path class="cls-2" d="M114.34,40.81h2.51v.51h-2.51Z"/><path class="cls-2" d="M114.34,41.81h2.51v.49l-1.68,1h1.68v.48h-2.51V43.3l1.64-1h-1.64Zm2.65.63v-.22h.06a.41.41,0,0,1,.28.09.3.3,0,0,1,.1.22.36.36,0,0,1,0,.11,1.2,1.2,0,0,1-.07.19.61.61,0,0,0-.06.22.16.16,0,0,0,0,.09.23.23,0,0,0,.12,0v.22a.47.47,0,0,1-.33-.09.28.28,0,0,1-.11-.22.43.43,0,0,1,0-.11l.07-.2a.7.7,0,0,0,.06-.23.1.1,0,0,0,0-.08A.21.21,0,0,0,117,42.44Z"/><path class="cls-2" d="M115.58,44.24a1.71,1.71,0,0,1,.64.11,1.21,1.21,0,0,1,.35.24,1,1,0,0,1,.22.33,1.27,1.27,0,0,1,.1.54,1.18,1.18,0,0,1-.34.89,1.33,1.33,0,0,1-1,.33,1.31,1.31,0,0,1-1-.33,1.17,1.17,0,0,1-.35-.88,1.19,1.19,0,0,1,.35-.9A1.28,1.28,0,0,1,115.58,44.24Zm0,.53A.92.92,0,0,0,115,45a.63.63,0,0,0-.22.5.62.62,0,0,0,.22.5.94.94,0,0,0,.65.2,1,1,0,0,0,.65-.19.66.66,0,0,0,.21-.51.62.62,0,0,0-.22-.5A.94.94,0,0,0,115.59,44.77Z"/><path class="cls-2" d="M78.67,46.68v-.93a1.45,1.45,0,0,1,0-.47A.78.78,0,0,1,79,44.9a1,1,0,0,1,.4-.24,1.72,1.72,0,0,1,.6-.09,1.69,1.69,0,0,1,.53.08,1.13,1.13,0,0,1,.45.27,1,1,0,0,1,.2.36,1.75,1.75,0,0,1,.05.45v1Zm.42-.51h1.67V45.8a1.09,1.09,0,0,0,0-.31.51.51,0,0,0-.1-.21.54.54,0,0,0-.24-.13,1.89,1.89,0,0,0-.46,0,1.64,1.64,0,0,0-.45,0,.48.48,0,0,0-.25.15.45.45,0,0,0-.11.23,1.86,1.86,0,0,0,0,.42Z"/><path class="cls-2" d="M81.18,44.14H78.67V42.28h.42v1.35h.56V42.37h.42v1.26h.69v-1.4h.42Z"/><path class="cls-2" d="M81.18,40.81H78.67v-.49l1.68-1H78.67v-.47h2.51v.51l-1.64,1h1.64Z"/><path class="cls-2" d="M81.18,36v.55l-.57.22v1l.57.21v.54l-2.51-1V37Zm-1,.94-.94.34.94.34Z"/><path class="cls-2" d="M81.18,35.74H78.67V34.67a1.7,1.7,0,0,1,.07-.59.52.52,0,0,1,.24-.29.71.71,0,0,1,.39-.11.7.7,0,0,1,.47.17.78.78,0,0,1,.23.49,2.12,2.12,0,0,1,.21-.27,2.3,2.3,0,0,1,.41-.28l.49-.31v.6l-.55.37-.37.27a.65.65,0,0,0-.1.15.84.84,0,0,0,0,.26v.1h1.05Zm-1.45-.51v-.37a2,2,0,0,0,0-.46.26.26,0,0,0-.11-.14.29.29,0,0,0-.19-.06.29.29,0,0,0-.3.26s0,.17,0,.38v.39Z"/><path class="cls-2" d="M81.18,33.22H78.67v-.51h2.51Z"/><path class="cls-2" d="M78.53,31.59v.22h-.06a.39.39,0,0,1-.28-.09.3.3,0,0,1-.1-.22s0-.08,0-.11a1.64,1.64,0,0,1,.08-.19.56.56,0,0,0,.06-.22.12.12,0,0,0,0-.09.14.14,0,0,0-.11,0v-.23a.47.47,0,0,1,.33.09.27.27,0,0,1,.1.22.45.45,0,0,1,0,.11s0,.1-.07.2a.77.77,0,0,0-.06.23.14.14,0,0,0,0,.09A.17.17,0,0,0,78.53,31.59Zm2.65.63H78.67v-.49l1.68-1H78.67v-.48h2.51v.51l-1.64,1h1.64Z"/><path class="cls-2" d="M79.94,29.79a1.57,1.57,0,0,1-.65-.12,1.27,1.27,0,0,1-.34-.23,1,1,0,0,1-.23-.33,1.44,1.44,0,0,1-.1-.54,1.18,1.18,0,0,1,.35-.89,1.55,1.55,0,0,1,1.91,0,1.33,1.33,0,0,1,0,1.78A1.3,1.3,0,0,1,79.94,29.79Zm0-.52a1,1,0,0,0,.65-.2.63.63,0,0,0,.22-.5.62.62,0,0,0-.22-.5,1,1,0,0,0-.66-.2,1,1,0,0,0-.64.19.66.66,0,0,0-.21.51.64.64,0,0,0,.21.5A1,1,0,0,0,79.92,29.27Z"/><rect class="cls-3" x="114.56" y="53.52" width="1.57" height="1.54"/><polygon class="cls-4" points="114.56 53.52 116.13 53.52 115.34 54.3 114.56 53.52 114.56 53.52"/><polygon class="cls-5" points="114.56 55.06 114.56 53.52 115.36 54.3 114.56 55.06 114.56 55.06"/><polygon class="cls-6" points="116.13 55.06 114.56 55.06 115.36 54.28 116.13 55.06 116.13 55.06"/><rect class="cls-7" x="79.39" y="53.52" width="1.57" height="1.54"/><polygon class="cls-4" points="79.39 53.52 80.96 53.52 80.17 54.3 79.39 53.52 79.39 53.52"/><polygon class="cls-5" points="79.39 55.06 79.39 53.52 80.19 54.3 79.39 55.06 79.39 55.06"/><polygon class="cls-6" points="80.96 55.06 79.39 55.06 80.19 54.29 80.96 55.06 80.96 55.06"/><path class="cls-2" d="M103.88,26.93V32.2l-2.5-5.27H94.1V31h1.25V42.35H93.06V26.93H85.2V31h.68V44a2.89,2.89,0,0,0,3,3.06H101V44.34h1.26l1.14,2.75h6.89V26.93Zm-3.65,14.88V39.35l1,2.46Z"/><path class="cls-8" d="M86.1,44V30.77h-.67V27.15h7.41V42.57h2.74V30.8H94.32V27.15h6.92l2.87,6v-6h6v.3h-3.57V38.79l-5.81-11.34h-4v2.94H98V43.54H92.23V27.45H87.84v2.91h.67V44a2.71,2.71,0,0,0,1.92,2.83H88.89A2.68,2.68,0,0,1,86.1,44Z"/><polygon class="cls-8" points="104.09 41.81 101.48 41.81 100.23 38.77 100.23 33.11 104.09 41.81"/><polygon class="cls-8" points="102.53 44.34 104.9 44.34 105.95 46.87 103.57 46.87 102.53 44.34"/><path class="cls-8" d="M132.46,27.15h2.31l4.61,11.75H137l-.94-2.42h-4.88l-1,2.42h-2.37Zm1.17,3.11-1.61,4h3.21Z"/><path class="cls-8" d="M141.06,27.15h2.28v7.6a3.75,3.75,0,0,0,.18,1.39,1.38,1.38,0,0,0,.57.65,2.11,2.11,0,0,0,2,0,1.5,1.5,0,0,0,.61-.69,5.12,5.12,0,0,0,.16-1.6V27.15h2.29v7a10.35,10.35,0,0,1-.2,2.46,3.6,3.6,0,0,1-.78,1.33,3.56,3.56,0,0,1-1.32.94,4.47,4.47,0,0,1-1.74.31,4.29,4.29,0,0,1-2.27-.59,3.46,3.46,0,0,1-1.38-1.47,7.57,7.57,0,0,1-.41-3Z"/><path class="cls-8" d="M150.63,27.15h6.61v2.2h-2.18V38.9h-2.31V29.35h-2.12Z"/><path class="cls-8" d="M168.82,28.66a6,6,0,0,0-4.37-1.81,6.27,6.27,0,0,0-3.13.83A6.13,6.13,0,0,0,159,29.92a6.18,6.18,0,0,0,5.43,9.28,6,6,0,0,0,4.38-1.78,6.19,6.19,0,0,0,0-8.76Zm-1.59,7.22A3.73,3.73,0,0,1,164.47,37a3.94,3.94,0,0,1-2.54-.88,3.75,3.75,0,0,1-1.43-3.09,3.91,3.91,0,0,1,1.14-2.89,4,4,0,0,1,5.58,0,3.9,3.9,0,0,1,1.15,2.85A3.85,3.85,0,0,1,167.23,35.88Z"/><polygon class="cls-8" points="165.06 23.91 167.02 23.91 164.8 26.24 163.61 26.24 165.06 23.91"/><path class="cls-8" d="M172.81,27.15H175l5.12,7.74V27.15h2.28V38.9H180.2l-5.12-7.71V38.9h-2.27Z"/><path class="cls-8" d="M190.78,26.85A6.2,6.2,0,0,1,197,33.06a5.9,5.9,0,0,1-1.8,4.36A6.24,6.24,0,0,1,184.53,33a6,6,0,0,1,.83-3.1,6.15,6.15,0,0,1,2.29-2.24A6.24,6.24,0,0,1,190.78,26.85Zm0,2.19A3.82,3.82,0,0,0,188,30.17a3.94,3.94,0,0,0-1.13,2.89,3.72,3.72,0,0,0,1.43,3.09,3.92,3.92,0,0,0,2.53.88,3.75,3.75,0,0,0,2.77-1.15,3.85,3.85,0,0,0,1.14-2.83,3.94,3.94,0,0,0-1.15-2.85A3.81,3.81,0,0,0,190.75,29Z"/><path class="cls-8" d="M200.28,27.15h2.22l2.78,8.2,2.8-8.2h2.22l2,11.75h-2.2l-1.28-7.42-2.55,7.42h-2l-2.52-7.42-1.32,7.42h-2.22Z"/><path class="cls-8" d="M217.77,27.15h2.31l4.61,11.75h-2.37l-.94-2.42H216.5l-1,2.42h-2.37Zm1.17,3.11-1.61,4h3.21Z"/><path class="cls-8" d="M131.84,19.45l-.35.26a1.68,1.68,0,0,0-.67-.55A2,2,0,0,0,130,19a2,2,0,0,0-1,.25,1.77,1.77,0,0,0-.68.65,1.81,1.81,0,0,0-.24.93,1.71,1.71,0,0,0,.54,1.29,2,2,0,0,0,2.88-.18l.35.26a2.15,2.15,0,0,1-.81.62A2.51,2.51,0,0,1,130,23a2.2,2.2,0,0,1-2.34-2.25,2.08,2.08,0,0,1,.67-1.57,2.32,2.32,0,0,1,1.66-.63,2.46,2.46,0,0,1,1.1.23A2.24,2.24,0,0,1,131.84,19.45Z"/><path class="cls-8" d="M135.11,18.56a2.25,2.25,0,0,1,1.64.64,2.22,2.22,0,0,1,0,3.16,2.19,2.19,0,0,1-1.61.65,2.22,2.22,0,0,1-1.62-.64,2.12,2.12,0,0,1-.67-1.57,2.23,2.23,0,0,1,.31-1.13,2.15,2.15,0,0,1,.82-.82A2.21,2.21,0,0,1,135.11,18.56Zm0,.41a1.85,1.85,0,0,0-.91.24,1.93,1.93,0,0,0-.67.66,1.84,1.84,0,0,0-.24.93,1.71,1.71,0,0,0,.54,1.28,1.74,1.74,0,0,0,1.28.52,1.91,1.91,0,0,0,.94-.24,1.79,1.79,0,0,0,.66-.65,1.84,1.84,0,0,0,.24-.93,1.74,1.74,0,0,0-.24-.91,1.77,1.77,0,0,0-.67-.66A1.9,1.9,0,0,0,135.12,19Z"/><path class="cls-8" d="M138.64,18.66h.86a5.17,5.17,0,0,1,1,.06,1.1,1.1,0,0,1,.62.37,1,1,0,0,1,.24.7,1.11,1.11,0,0,1-.16.61,1,1,0,0,1-.47.4,2.2,2.2,0,0,1-.86.14l1.56,2h-.54l-1.55-2h-.24v2h-.44Zm.44.42v1.44h.74a1.74,1.74,0,0,0,.64-.08.62.62,0,0,0,.32-.25.7.7,0,0,0,.12-.4.69.69,0,0,0-.43-.64,1.94,1.94,0,0,0-.63-.07Z"/><path class="cls-8" d="M142.61,18.66h.86a5.28,5.28,0,0,1,1,.06,1.16,1.16,0,0,1,.61.37,1.09,1.09,0,0,1,.23.7,1,1,0,0,1-.86,1.07,5.32,5.32,0,0,1-1.1.07H143v2h-.43Zm.43.42v1.44h.73a2,2,0,0,0,.65-.07.71.71,0,0,0,.33-.26.71.71,0,0,0,0-.79.75.75,0,0,0-.31-.25,1.94,1.94,0,0,0-.63-.07Z"/><path class="cls-8" d="M148.58,18.56a2.25,2.25,0,0,1,1.64.64,2.22,2.22,0,0,1,0,3.16,2.19,2.19,0,0,1-1.61.65,2.22,2.22,0,0,1-1.62-.64,2.11,2.11,0,0,1-.66-1.57,2.22,2.22,0,0,1,.3-1.13,2.15,2.15,0,0,1,.82-.82A2.21,2.21,0,0,1,148.58,18.56Zm0,.41a1.82,1.82,0,0,0-.91.24,1.84,1.84,0,0,0-.67.66,1.75,1.75,0,0,0-.25.93,1.71,1.71,0,0,0,.54,1.28,1.75,1.75,0,0,0,1.29.52,1.9,1.9,0,0,0,.93-.24,1.79,1.79,0,0,0,.66-.65,1.75,1.75,0,0,0,.24-.93,1.65,1.65,0,0,0-.24-.91,1.77,1.77,0,0,0-.67-.66A1.89,1.89,0,0,0,148.6,19Z"/><path class="cls-8" d="M152.12,18.66H153a5.1,5.1,0,0,1,1,.06,1.12,1.12,0,0,1,.63.37,1,1,0,0,1,.24.7,1.12,1.12,0,0,1-.17.61,1,1,0,0,1-.47.4,2.18,2.18,0,0,1-.85.14l1.55,2h-.53l-1.56-2h-.24v2h-.43Zm.43.42v1.44h.74a1.74,1.74,0,0,0,.64-.08.62.62,0,0,0,.32-.25.7.7,0,0,0,.12-.4.69.69,0,0,0-.43-.64,1.9,1.9,0,0,0-.63-.07Z"/><path class="cls-8" d="M157.85,18.66l2,4.25h-.47l-.68-1.4h-1.86l-.67,1.4h-.49l2.05-4.25Zm0,.9-.74,1.54h1.47Z"/><path class="cls-8" d="M164.91,19.45l-.35.26a1.68,1.68,0,0,0-.67-.55A2,2,0,0,0,163,19a2,2,0,0,0-1,.25,1.77,1.77,0,0,0-.68.65,1.81,1.81,0,0,0-.24.93,1.71,1.71,0,0,0,.54,1.29,2,2,0,0,0,2.88-.18l.35.26a2.15,2.15,0,0,1-.81.62A2.51,2.51,0,0,1,163,23a2.25,2.25,0,0,1-1.79-.74,2.18,2.18,0,0,1-.55-1.51,2.08,2.08,0,0,1,.67-1.57,2.32,2.32,0,0,1,1.66-.63,2.46,2.46,0,0,1,1.1.23A2.24,2.24,0,0,1,164.91,19.45Z"/><path class="cls-8" d="M166.05,18.66h.44v4.25h-.44Z"/><path class="cls-8" d="M169.88,18.56a2.25,2.25,0,0,1,1.64.64,2.22,2.22,0,0,1,0,3.16,2.17,2.17,0,0,1-1.61.65,2.22,2.22,0,0,1-1.62-.64,2.11,2.11,0,0,1-.66-1.57,2.22,2.22,0,0,1,.3-1.13,2.15,2.15,0,0,1,.82-.82A2.21,2.21,0,0,1,169.88,18.56Zm0,.41a1.82,1.82,0,0,0-.91.24,1.78,1.78,0,0,0-.91,1.59,1.7,1.7,0,0,0,.53,1.28,1.77,1.77,0,0,0,1.29.52,1.9,1.9,0,0,0,.93-.24,1.82,1.82,0,0,0,.67-.65,1.84,1.84,0,0,0,.24-.93,1.74,1.74,0,0,0-.24-.91,1.8,1.8,0,0,0-.68-.66A1.89,1.89,0,0,0,169.9,19Zm.21-1.53h.63l-.86.89h-.41Z"/><path class="cls-8" d="M173.4,22.91V18.66h.09l2.88,3.26V18.66h.42v4.25h-.09l-2.86-3.22v3.22Z"/><path class="cls-8" d="M180.21,18.66h.43v2.56a5.31,5.31,0,0,0,0,.57.88.88,0,0,0,.15.42,1,1,0,0,0,.36.29,1.24,1.24,0,0,0,.49.11,1,1,0,0,0,.41-.09.9.9,0,0,0,.33-.25.92.92,0,0,0,.2-.38,3.23,3.23,0,0,0,0-.67V18.66h.43v2.56a3.25,3.25,0,0,1-.11.92,1.31,1.31,0,0,1-1.27.87,1.63,1.63,0,0,1-.9-.24,1.15,1.15,0,0,1-.5-.65,3.58,3.58,0,0,1-.08-.9Z"/><path class="cls-8" d="M184.48,22.91V18.66h.1l2.87,3.26V18.66h.43v4.25h-.1l-2.85-3.22v3.22Z"/><path class="cls-8" d="M189.21,18.66h.43v4.25h-.43Z"/><path class="cls-8" d="M190.65,18.66h.47l1.43,3.28L194,18.66h.46l-1.87,4.25h-.1Z"/><path class="cls-8" d="M195.55,18.66H198v.42h-2v1.33h2v.41h-2v1.67h2v.42h-2.46Z"/><path class="cls-8" d="M199.14,18.66H200a5,5,0,0,1,1,.06,1.12,1.12,0,0,1,.63.37,1,1,0,0,1,.24.7,1.2,1.2,0,0,1-.16.61,1.05,1.05,0,0,1-.48.4,2.18,2.18,0,0,1-.85.14l1.55,2h-.53l-1.56-2h-.24v2h-.43Zm.43.42v1.44h.74a1.74,1.74,0,0,0,.64-.08.7.7,0,0,0,.33-.25.77.77,0,0,0,.11-.4.69.69,0,0,0-.12-.39.62.62,0,0,0-.3-.25,2,2,0,0,0-.64-.07Z"/><path class="cls-8" d="M202.66,22.12l.37-.22c.26.47.56.7.9.7a.79.79,0,0,0,.4-.1.62.62,0,0,0,.29-.26.7.7,0,0,0,0-.78,3.66,3.66,0,0,0-.74-.68,4.09,4.09,0,0,1-.68-.58,1.06,1.06,0,0,1-.22-.65,1,1,0,0,1,.13-.51.92.92,0,0,1,.38-.35,1.07,1.07,0,0,1,.53-.13,1.16,1.16,0,0,1,.58.14,2.19,2.19,0,0,1,.56.55l-.35.26a1.71,1.71,0,0,0-.42-.41A.7.7,0,0,0,204,19a.57.57,0,0,0-.43.16.5.5,0,0,0-.17.38.63.63,0,0,0,.06.27.86.86,0,0,0,.22.28,5.52,5.52,0,0,0,.55.43,3,3,0,0,1,.77.72,1.16,1.16,0,0,1,.21.64,1.05,1.05,0,0,1-.36.8A1.17,1.17,0,0,1,204,23a1.28,1.28,0,0,1-.72-.2A2,2,0,0,1,202.66,22.12Z"/><path class="cls-8" d="M206.39,18.66h.43v4.25h-.43Z"/><path class="cls-8" d="M207.72,19.08v-.42h2.37v.42h-1v3.83h-.44V19.08Z"/><path class="cls-8" d="M212.34,18.66l2,4.25h-.47l-.67-1.4h-1.87l-.67,1.4h-.48l2-4.25Zm-.06.9-.74,1.54H213Z"/><path class="cls-8" d="M215.39,18.66h.86a5,5,0,0,1,1,.06,1.12,1.12,0,0,1,.63.37,1,1,0,0,1,.24.7,1.2,1.2,0,0,1-.16.61,1.05,1.05,0,0,1-.48.4,2.18,2.18,0,0,1-.85.14l1.55,2h-.53l-1.56-2h-.24v2h-.43Zm.43.42v1.44h.74a1.71,1.71,0,0,0,.64-.08.65.65,0,0,0,.44-.65.77.77,0,0,0-.11-.39.69.69,0,0,0-.31-.25,2,2,0,0,0-.64-.07Z"/><path class="cls-8" d="M219.3,18.66h.43v4.25h-.43Z"/><path class="cls-8" d="M222.83,18.66l2,4.25h-.46l-.68-1.4h-1.86l-.68,1.4h-.48l2-4.25Zm-.06.9L222,21.1h1.48Z"/><path class="cls-8" d="M127.7,55.29V42.43h2.71a14.15,14.15,0,0,1,4.27.46,5.73,5.73,0,0,1,3,2.28A6.85,6.85,0,0,1,138.73,49a6.69,6.69,0,0,1-.85,3.39,5.36,5.36,0,0,1-2.21,2.17,8.41,8.41,0,0,1-3.81.7ZM129,54.08h1.52a14.38,14.38,0,0,0,3.76-.33,4.38,4.38,0,0,0,2.33-1.7,5.19,5.19,0,0,0,.84-3,5.43,5.43,0,0,0-.92-3.19,4.61,4.61,0,0,0-2.55-1.8,15.45,15.45,0,0,0-4.05-.37H129Z"/><path class="cls-8" d="M141.27,42.43h7.51v1.26h-6.2v4h6.14V49h-6.14V54h6.14v1.26h-7.45Z"/><path class="cls-8" d="M156.1,55.29V42.43h.28l8.72,9.86V42.43h1.29V55.29h-.3l-8.64-9.74v9.74Z"/><path class="cls-8" d="M174.92,42.43,181,55.29h-1.41l-2.06-4.23h-5.65l-2,4.23h-1.47l6.19-12.86Zm-.16,2.73-2.25,4.66H177Z"/><path class="cls-8" d="M183.13,42.43h2.61a15.57,15.57,0,0,1,2.95.18,3.39,3.39,0,0,1,1.9,1.12,3.15,3.15,0,0,1,.73,2.13,3.4,3.4,0,0,1-.5,1.84,3.24,3.24,0,0,1-1.44,1.21,6.65,6.65,0,0,1-2.58.41l4.71,6h-1.62l-4.71-6h-.74v6h-1.31Zm1.31,1.26v4.37l2.25,0a5.75,5.75,0,0,0,1.94-.24,2.1,2.1,0,0,0,1-.79,2.19,2.19,0,0,0,.35-1.2,2.08,2.08,0,0,0-.36-1.18,2,2,0,0,0-.94-.75,5.78,5.78,0,0,0-1.92-.23Z"/><path class="cls-8" d="M193.94,42.43h1.31V55.29h-1.31Z"/><polygon class="cls-8" points="198.25 55.29 198.25 42.43 198.54 42.43 207.25 52.29 207.25 42.43 208.55 42.43 208.55 55.29 208.25 55.29 199.61 45.55 199.61 55.29 198.25 55.29"/><path class="cls-8" d="M206,40.48l.63.85a4.91,4.91,0,0,1-1.08.62,2.93,2.93,0,0,1-.93.16,3,3,0,0,1-1.32-.33,7.46,7.46,0,0,0-.74-.32,1.7,1.7,0,0,0-.46-.06,1.63,1.63,0,0,0-.59.11,4.37,4.37,0,0,0-.82.49l-.59-.89a2.66,2.66,0,0,1,2-.86,3.32,3.32,0,0,1,1.36.36,2.17,2.17,0,0,0,2.54-.13Z"/><path class="cls-8" d="M218,42.11a6.87,6.87,0,0,1,5,2,6.75,6.75,0,0,1,0,9.59,6.7,6.7,0,0,1-4.88,2,6.77,6.77,0,0,1-4.91-2,6.39,6.39,0,0,1-2-4.74,6.77,6.77,0,0,1,.92-3.44A6.59,6.59,0,0,1,214.56,43,6.86,6.86,0,0,1,218,42.11Zm.06,1.25a5.49,5.49,0,0,0-5.52,5.56,5.25,5.25,0,0,0,1.61,3.87A5.4,5.4,0,0,0,218,54.37a5.75,5.75,0,0,0,2.82-.73,5.22,5.22,0,0,0,2-2,5.44,5.44,0,0,0,.73-2.8,5.33,5.33,0,0,0-.73-2.77,5.39,5.39,0,0,0-2-2A5.62,5.62,0,0,0,218,43.36Z"/><path class="cls-8" d="M52.73,66.61H53.9L53.05,71h2.11L55,72H51.68Z"/><path class="cls-8" d="M58.22,72c0-.23,0-.49.05-.77h0a1.53,1.53,0,0,1-1.35.86,1.22,1.22,0,0,1-1.2-1.36A2.67,2.67,0,0,1,58.55,68a4.92,4.92,0,0,1,1.32.19l-.42,2A10.66,10.66,0,0,0,59.29,72Zm.33-3.09a1.47,1.47,0,0,0-.32,0c-.76,0-1.31.92-1.31,1.64,0,.39.16.65.48.65s.78-.39,1-1.35Z"/><path class="cls-8" d="M63.5,67.62H62.05l.21-1h4.08l-.2,1H64.68L63.83,72H62.66Z"/><path class="cls-8" d="M68.64,71.78a3.5,3.5,0,0,1-1.49.31,1.53,1.53,0,0,1-1.72-1.66A2.37,2.37,0,0,1,67.76,68a1.22,1.22,0,0,1,1.38,1.18c0,1-1,1.35-2.59,1.31a.9.9,0,0,0,.13.4.92.92,0,0,0,.77.3A2.56,2.56,0,0,0,68.56,71Zm-1-2.94a1,1,0,0,0-1,.81c.92,0,1.38-.11,1.38-.48C68,69,67.88,68.84,67.61,68.84Z"/><path class="cls-8" d="M72.37,71.87a2.82,2.82,0,0,1-1.14.21,1.53,1.53,0,0,1-1.67-1.6A2.48,2.48,0,0,1,72.15,68a2.64,2.64,0,0,1,.82.13l-.29.89a1.33,1.33,0,0,0-.54-.1,1.37,1.37,0,0,0-1.35,1.43.74.74,0,0,0,.78.81,2.08,2.08,0,0,0,.79-.16Z"/><path class="cls-8" d="M73,72l.51-2.64c.11-.49.16-.92.22-1.27h1l-.07.65h0A1.67,1.67,0,0,1,76.08,68a1,1,0,0,1,1,1.07,5.11,5.11,0,0,1-.07.66L76.6,72H75.42l.42-2.17a2,2,0,0,0,0-.43c0-.28-.1-.47-.4-.47s-.84.47-1,1.34L74.16,72Z"/><path class="cls-8" d="M81.78,69.61a2.36,2.36,0,0,1-2.38,2.48,1.56,1.56,0,0,1-1.68-1.62A2.37,2.37,0,0,1,80.1,68,1.57,1.57,0,0,1,81.78,69.61Zm-2.85.84c0,.46.23.76.65.76.62,0,1-.93,1-1.59,0-.36-.16-.75-.63-.75C79.27,68.87,78.93,69.84,78.93,70.45Z"/><path class="cls-8" d="M82.13,72l1.11-5.68h1.17L83.31,72Z"/><path class="cls-8" d="M88.5,69.61a2.36,2.36,0,0,1-2.38,2.48,1.57,1.57,0,0,1-1.69-1.62A2.37,2.37,0,0,1,86.81,68,1.57,1.57,0,0,1,88.5,69.61Zm-2.86.84c0,.46.23.76.65.76.62,0,1-.93,1-1.59,0-.36-.16-.75-.63-.75C86,68.87,85.64,69.84,85.64,70.45Z"/><path class="cls-8" d="M89.15,72.55a2.5,2.5,0,0,0,1,.21,1.11,1.11,0,0,0,1.19-1l.06-.33h0a1.35,1.35,0,0,1-1.14.58A1.3,1.3,0,0,1,89,70.57,2.54,2.54,0,0,1,91.68,68a4.1,4.1,0,0,1,1.47.27l-.6,3.23a2.82,2.82,0,0,1-.84,1.74,2.54,2.54,0,0,1-1.54.44,3,3,0,0,1-1.3-.25ZM91.88,69a1.18,1.18,0,0,0-.42-.07c-.71,0-1.21.78-1.21,1.51,0,.4.18.69.53.69s.77-.42.9-1.08Z"/><path class="cls-8" d="M93.43,72l.76-3.91h1.17L94.6,72Zm2.85-5.6-1.06,1.22h-.86l.77-1.22Z"/><path class="cls-8" d="M98.21,72c0-.23,0-.49,0-.77h0a1.53,1.53,0,0,1-1.35.86,1.22,1.22,0,0,1-1.2-1.36A2.67,2.67,0,0,1,98.54,68a4.92,4.92,0,0,1,1.32.19l-.42,2A9.68,9.68,0,0,0,99.28,72Zm.33-3.09a1.47,1.47,0,0,0-.32,0c-.76,0-1.31.92-1.31,1.64,0,.39.15.65.48.65s.78-.39,1-1.35Z"/><path class="cls-8" d="M104.93,71.78a3.5,3.5,0,0,1-1.49.31,1.53,1.53,0,0,1-1.72-1.66A2.37,2.37,0,0,1,104.05,68a1.22,1.22,0,0,1,1.38,1.18c0,1-1,1.35-2.59,1.31a.9.9,0,0,0,.13.4.93.93,0,0,0,.77.3,2.56,2.56,0,0,0,1.11-.24Zm-1-2.94a1,1,0,0,0-1,.81c.92,0,1.38-.11,1.38-.48C104.33,69,104.17,68.84,103.9,68.84Z"/><path class="cls-8" d="M105.83,71a2.63,2.63,0,0,0,1,.27c.34,0,.51-.16.51-.35s-.13-.33-.5-.5-.84-.56-.84-1c0-.82.73-1.36,1.76-1.36a2.35,2.35,0,0,1,1,.2l-.28.82a2.07,2.07,0,0,0-.79-.17c-.32,0-.53.13-.53.35s.17.29.49.44.89.53.89,1.08c0,.89-.77,1.38-1.83,1.37a2.39,2.39,0,0,1-1.22-.3Z"/><path class="cls-8" d="M113.9,71.78a3.5,3.5,0,0,1-1.49.31,1.53,1.53,0,0,1-1.72-1.66A2.37,2.37,0,0,1,113,68c.81,0,1.39.45,1.39,1.18,0,1-1,1.35-2.59,1.31a.9.9,0,0,0,.13.4.91.91,0,0,0,.76.3,2.57,2.57,0,0,0,1.12-.24Zm-1-2.94a1,1,0,0,0-1,.81c.92,0,1.38-.11,1.38-.48C113.3,69,113.14,68.84,112.87,68.84Z"/><path class="cls-8" d="M114.65,72l1.11-5.68h1.17L115.82,72Z"/><path class="cls-8" d="M122.47,71.85a3.71,3.71,0,0,1-1.44.23,2.21,2.21,0,0,1-2.43-2.29A3.13,3.13,0,0,1,120,67.1a3.46,3.46,0,0,1,2-.57,2.93,2.93,0,0,1,1.21.22l-.33.94a2.57,2.57,0,0,0-1-.18,2,2,0,0,0-1.26.42,2.23,2.23,0,0,0-.76,1.74,1.33,1.33,0,0,0,1.46,1.43,2.85,2.85,0,0,0,1-.18Z"/><path class="cls-8" d="M125.58,72c0-.23,0-.49,0-.77h0a1.53,1.53,0,0,1-1.35.86,1.22,1.22,0,0,1-1.2-1.36A2.67,2.67,0,0,1,125.92,68a5,5,0,0,1,1.32.19l-.42,2a8.87,8.87,0,0,0-.16,1.76Zm.34-3.09a1.47,1.47,0,0,0-.32,0c-.76,0-1.31.92-1.31,1.64,0,.39.15.65.48.65s.78-.39,1-1.35Z"/><path class="cls-8" d="M127.52,72l.5-2.64c.09-.49.15-.92.2-1.27h1l-.08.63h0a1.65,1.65,0,0,1,1.37-.73.85.85,0,0,1,.94.75,1.66,1.66,0,0,1,1.38-.75.94.94,0,0,1,1,1.06,4.24,4.24,0,0,1-.07.67L133.33,72h-1.14l.4-2.14a2.52,2.52,0,0,0,.06-.47c0-.28-.13-.47-.39-.47s-.79.51-.94,1.31L131,72h-1.13l.42-2.15a3.87,3.87,0,0,0,0-.45c0-.27-.09-.48-.38-.48s-.82.55-1,1.32L128.66,72Z"/><path class="cls-8" d="M134.29,72l.76-3.91h1.17L135.47,72Zm1.48-4.4a.54.54,0,0,1-.56-.56.66.66,0,0,1,.68-.66.55.55,0,0,1,.59.57.64.64,0,0,1-.69.65Z"/><path class="cls-8" d="M136.44,72l.51-2.64c.1-.49.16-.92.22-1.27h1l-.07.65h0a1.67,1.67,0,0,1,1.39-.74,1,1,0,0,1,1,1.07,5.06,5.06,0,0,1-.06.66L140.06,72h-1.18l.42-2.17a2,2,0,0,0,0-.43c0-.28-.09-.47-.4-.47s-.83.47-1,1.34L137.62,72Z"/><path class="cls-8" d="M145.24,69.61a2.36,2.36,0,0,1-2.38,2.48,1.56,1.56,0,0,1-1.68-1.62A2.37,2.37,0,0,1,143.55,68,1.57,1.57,0,0,1,145.24,69.61Zm-2.85.84c0,.46.23.76.64.76.63,0,1-.93,1-1.59,0-.36-.17-.75-.63-.75C142.72,68.87,142.39,69.84,142.39,70.45Z"/><path class="cls-8" d="M147.09,72l1.1-5.68h1.17l-.45,2.27h0A1.68,1.68,0,0,1,150.2,68a1,1,0,0,1,1,1.06,4.6,4.6,0,0,1-.07.7L150.7,72h-1.17l.41-2.14a2.52,2.52,0,0,0,.05-.48c0-.27-.11-.45-.4-.45s-.83.5-1,1.28L148.26,72Z"/><path class="cls-8" d="M154.29,72c0-.23,0-.49.05-.77h0a1.52,1.52,0,0,1-1.34.86,1.22,1.22,0,0,1-1.21-1.36A2.68,2.68,0,0,1,154.63,68a4.84,4.84,0,0,1,1.31.19l-.41,2a8.87,8.87,0,0,0-.16,1.76Zm.34-3.09a1.47,1.47,0,0,0-.32,0c-.76,0-1.31.92-1.31,1.64,0,.39.15.65.48.65s.78-.39,1-1.35Z"/><path class="cls-8" d="M159.13,71.87a2.77,2.77,0,0,1-1.13.21,1.53,1.53,0,0,1-1.68-1.6,2.48,2.48,0,0,1,2.6-2.48,2.62,2.62,0,0,1,.81.13l-.29.89a1.3,1.3,0,0,0-.54-.1,1.37,1.37,0,0,0-1.35,1.43.74.74,0,0,0,.78.81,2,2,0,0,0,.79-.16Z"/><path class="cls-8" d="M159.76,72l.75-3.91h1.18L160.93,72Zm1.48-4.4a.53.53,0,0,1-.56-.56.66.66,0,0,1,.67-.66.56.56,0,0,1,.6.57.65.65,0,0,1-.69.65Z"/><path class="cls-8" d="M164.53,72c0-.23,0-.49.05-.77h0a1.52,1.52,0,0,1-1.34.86A1.22,1.22,0,0,1,162,70.73,2.67,2.67,0,0,1,164.86,68a4.86,4.86,0,0,1,1.32.19l-.41,2a8.87,8.87,0,0,0-.16,1.76Zm.33-3.09a1.37,1.37,0,0,0-.31,0c-.76,0-1.32.92-1.32,1.64,0,.39.16.65.49.65s.78-.39,1-1.35Z"/><path class="cls-8" d="M172.24,68.09l-.5,2.64c-.1.5-.16.92-.21,1.27h-1l.08-.63h0a1.74,1.74,0,0,1-1.37.73c-.64,0-1-.35-1-1.1a3.52,3.52,0,0,1,.09-.72l.42-2.18h1.17l-.4,2.1a2.52,2.52,0,0,0-.06.52c0,.24.1.44.4.44s.8-.47,1-1.24l.35-1.82Z"/><path class="cls-8" d="M172.48,72l.51-2.64c.1-.49.16-.92.22-1.27h1l-.07.65h0a1.7,1.7,0,0,1,1.4-.74,1,1,0,0,1,1,1.07,5.06,5.06,0,0,1-.06.66L176.1,72h-1.18l.42-2.17a2.86,2.86,0,0,0,0-.43c0-.28-.1-.47-.4-.47s-.83.47-1,1.34L173.65,72Z"/><path class="cls-8" d="M183.21,72l.33-2.22c.09-.59.22-1.33.37-2.11h0c-.31.7-.65,1.44-.95,2l-1.12,2.2h-.92l-.19-2.18c-.05-.59-.09-1.34-.12-2.06h0c-.15.72-.32,1.52-.46,2.11L179.57,72h-1.08l1.38-5.39h1.57l.17,2c0,.5.09,1.12.1,1.72h0c.21-.6.51-1.23.74-1.72l1-2h1.59L184.35,72Z"/><path class="cls-8" d="M189.58,68.09l-.51,2.64c-.09.5-.16.92-.21,1.27h-1l.07-.63h0a1.74,1.74,0,0,1-1.37.73c-.65,0-1-.35-1-1.1a3.43,3.43,0,0,1,.08-.72l.43-2.18h1.17l-.41,2.1a3.46,3.46,0,0,0-.06.52c0,.24.11.44.4.44s.81-.47,1-1.24l.35-1.82Z"/><path class="cls-8" d="M189.82,72l.5-2.64c.11-.49.16-.92.22-1.27h1l-.08.65h0a1.67,1.67,0,0,1,1.39-.74,1,1,0,0,1,1,1.07,3.8,3.8,0,0,1-.07.66L193.43,72h-1.18l.43-2.17a2.86,2.86,0,0,0,0-.43c0-.28-.1-.47-.4-.47s-.83.47-1,1.34L191,72Z"/><path class="cls-8" d="M199.09,66.32l-.81,4.16a10.52,10.52,0,0,0-.19,1.52H197l0-.63h0a1.54,1.54,0,0,1-1.31.72c-.68,0-1.23-.53-1.23-1.48A2.54,2.54,0,0,1,197,68a1.77,1.77,0,0,1,.54.1l.35-1.77ZM197.41,69a.8.8,0,0,0-.47-.14c-.7,0-1.2.8-1.2,1.56,0,.47.21.73.54.73s.76-.35.92-1.1Z"/><path class="cls-8" d="M203.18,69.61a2.36,2.36,0,0,1-2.38,2.48,1.57,1.57,0,0,1-1.69-1.62A2.37,2.37,0,0,1,201.49,68,1.57,1.57,0,0,1,203.18,69.61Zm-2.86.84c0,.46.23.76.65.76.63,0,1-.93,1-1.59,0-.36-.16-.75-.63-.75C200.66,68.87,200.32,69.84,200.32,70.45Z"/><path class="cls-8" d="M205.17,71a2.63,2.63,0,0,0,1,.27c.33,0,.5-.16.5-.35s-.13-.33-.5-.5-.84-.56-.84-1c0-.82.73-1.36,1.76-1.36a2.35,2.35,0,0,1,1,.2l-.28.82a2.07,2.07,0,0,0-.79-.17c-.32,0-.52.13-.52.35s.16.29.48.44.89.53.89,1.08c0,.89-.77,1.38-1.83,1.37a2.32,2.32,0,0,1-1.21-.3Z"/><path class="cls-8" d="M208.41,72l.76-3.91h1.17L209.59,72Zm1.49-4.4a.54.54,0,0,1-.57-.56.66.66,0,0,1,.68-.66.56.56,0,0,1,.6.57.65.65,0,0,1-.7.65Z"/><path class="cls-8" d="M210.56,72l.51-2.64c.1-.49.16-.92.22-1.27h1l-.07.65h0a1.67,1.67,0,0,1,1.39-.74,1,1,0,0,1,1,1.07,5.11,5.11,0,0,1-.07.66L214.18,72H213l.42-2.17a2,2,0,0,0,0-.43c0-.28-.09-.47-.4-.47s-.83.47-1,1.34L211.74,72Z"/><path class="cls-8" d="M217.75,66.61H221l-.2,1h-2l-.25,1.27h1.92l-.2,1h-1.91L217.88,72h-1.17Z"/><path class="cls-8" d="M220.71,72l.44-2.33c.12-.59.17-1.24.21-1.58h1c0,.26,0,.53-.08.8h0A1.49,1.49,0,0,1,223.6,68h.22l-.23,1.12h-.19c-.75,0-1.1.66-1.24,1.43L221.88,72Z"/><path class="cls-8" d="M227.92,69.61a2.36,2.36,0,0,1-2.38,2.48,1.56,1.56,0,0,1-1.68-1.62A2.37,2.37,0,0,1,226.24,68,1.57,1.57,0,0,1,227.92,69.61Zm-2.85.84c0,.46.23.76.65.76.62,0,1-.93,1-1.59,0-.36-.16-.75-.63-.75C225.41,68.87,225.07,69.84,225.07,70.45Z"/><path class="cls-8" d="M228.27,72l.5-2.64c.11-.49.16-.92.22-1.27h1l-.07.65h0a1.67,1.67,0,0,1,1.39-.74,1,1,0,0,1,1,1.07,3.8,3.8,0,0,1-.07.66L231.88,72H230.7l.43-2.17a2.86,2.86,0,0,0,0-.43c0-.28-.1-.47-.4-.47s-.83.47-1,1.34L229.44,72Z"/><path class="cls-8" d="M235.11,67l-.21,1h.86l-.18.88h-.85l-.27,1.33a3,3,0,0,0-.06.5c0,.19.08.32.34.32h.32l-.13.9a2.31,2.31,0,0,1-.69.09c-.71,0-1.05-.35-1.05-.85a3.78,3.78,0,0,1,.09-.73l.3-1.55h-.5l.16-.88h.52l.14-.73Z"/><path class="cls-8" d="M239,71.78a3.57,3.57,0,0,1-1.5.31,1.53,1.53,0,0,1-1.71-1.66A2.37,2.37,0,0,1,238.1,68a1.22,1.22,0,0,1,1.38,1.18c0,1-1,1.35-2.59,1.31a.9.9,0,0,0,.13.4,1,1,0,0,0,.77.3A2.52,2.52,0,0,0,238.9,71Zm-1-2.94a1,1,0,0,0-.94.81c.92,0,1.37-.11,1.37-.48C238.38,69,238.22,68.84,238,68.84Z"/><path class="cls-8" d="M239.73,72l.45-2.33c.12-.59.17-1.24.21-1.58h1c0,.26,0,.53-.08.8h0a1.49,1.49,0,0,1,1.27-.89h.22l-.23,1.12h-.19c-.75,0-1.1.66-1.24,1.43L240.91,72Z"/><path class="cls-8" d="M245.29,72c0-.23,0-.49.05-.77h0a1.52,1.52,0,0,1-1.34.86,1.22,1.22,0,0,1-1.21-1.36A2.67,2.67,0,0,1,245.62,68a4.92,4.92,0,0,1,1.32.19l-.41,2a8.87,8.87,0,0,0-.16,1.76Zm.33-3.09a1.37,1.37,0,0,0-.31,0c-.76,0-1.31.92-1.31,1.64,0,.39.15.65.48.65s.78-.39,1-1.35Z"/><path class="cls-8" d="M247.34,71a2.58,2.58,0,0,0,1,.27c.33,0,.51-.16.51-.35s-.14-.33-.5-.5a1.25,1.25,0,0,1-.84-1c0-.82.72-1.36,1.75-1.36a2.41,2.41,0,0,1,1,.2L250,69a2,2,0,0,0-.79-.17c-.32,0-.52.13-.52.35s.16.29.48.44.9.53.9,1.08c0,.89-.78,1.38-1.84,1.37a2.38,2.38,0,0,1-1.21-.3Z"/></svg>